<svg viewBox="0 0 495 495" xmlns="http://www.w3.org/2000/svg"><path d="m95 455c24 3 52 19 75 22s30-16 30-16 26-6 54-6c27-1 54 5 54 5s5 12 14 17 30 6 43-8 48-31 67-42c20-11 16-27 4-32-13-5-23-13-22-29 1-15-11-25-11-25s10-33 1-61c-9-27-41-72-64-105-24-33-4-72-26-121s-78-46-109-25c-30 21-21 73-19 98 1 24 1 42-2 48-3 7-23 30-36 49-13 20-22 61-32 77-9 17-3 32-3 32s-6 2-11 13-15 16-34 20c-18 3-18 15-13 28 4 13 0 20-5 37-5 16 20 22 45 24zm255-75c13 5 32-3 37-8 6-6 10-14 10-14s5 3 5 12c-1 9 4 22 12 26 9 4 22 11 15 17s-45 21-56 33-26 21-35 19c-9-3-17-15-13-34 4-18 8-37 7-49 0-11-3-26 0-28s7-1 7-1-2 21 11 27zm-84-305c13 0 23 13 23 28 0 10-5 20-13 24l-6-2c5-2 8-8 8-15 0-8-5-15-12-15-6 0-12 7-12 15l2 9-10-4-2-12c0-15 10-28 22-28zm-30 48c6 1 22 8 29 10 6 2 13 6 12 10s-4 4-12 10c-9 5-27 16-33 17-6 0-9-3-15-7s-18-13-15-19l13-10c4-4 14-13 21-11zm-27-43c9 0 17 11 17 26v7l-8 4-3 3c2-3 2-7 2-11-2-8-7-14-12-13s-8 8-7 16 7 13 12 12h1l-8 6c-7-3-12-13-12-24 0-15 8-26 18-26zm-55 188c10-16 17-51 27-62 10-12 18-37 14-48 0 0 22 27 37 22 15-4 49-29 55-25 5 4 48 100 52 130 5 31-3 54-3 54s-16-5-18 6c-2 10-2 47-2 47s-23 31-58 36c-34 5-52 1-52 1l-19-22s15-2 13-18c-2-15-47-36-55-55-8-18-1-50 9-66zm-86 114c2-8 24-8 33-13s10-20 17-24 20 10 25 18 25 43 33 52 16 20 14 31c-3 10-15 18-15 18-11 3-42-10-55-16-14-6-50-8-54-13-5-5 2-17 4-28 1-11-4-18-2-25z" fill="#fff"/></svg>